

General
Complete name                            : Resident Evil Retribution TS x264 AAC-UNiQUE.mp4
Format                                   : MPEG-4
Format profile                           : Base Media
Codec ID                                 : isom
File size                                : 1.44 GiB
Duration                                 : 1h 24mn
Overall bit rate mode                    : Variable
Overall bit rate                         : 2 425 Kbps
Encoded date                             : UTC 2012-09-15 12:21:45

Video
ID                                       : 1
Format                                   : AVC
Format/Info                              : Advanced Video Codec
Format profile                           : High@L4.1
Format settings, CABAC                   : Yes
Format settings, ReFrames                : 3 frames
Codec ID                                 : avc1
Codec ID/Info                            : Advanced Video Coding
Duration                                 : 1h 24mn
Bit rate mode                            : Variable
Bit rate                                 : 2 296 Kbps
Maximum bit rate                         : 40.0 Mbps
Width                                    : 720 pixels
Height                                   : 304 pixels
Display aspect ratio                     : 2.35:1
Frame rate mode                          : Constant
Frame rate                               : 25.000 fps
Color space                              : YUV
Chroma subsampling                       : 4:2:0
Bit depth                                : 8 bits
Scan type                                : Progressive
Bits/(Pixel*Frame)                       : 0.420
Stream size                              : 1.36 GiB (95%)
Writing library                          : x264 core 125 r2208 d9d2288

Audio
ID                                       : 2
Format                                   : AAC
Format/Info                              : Advanced Audio Codec
Format profile                           : LC
Codec ID                                 : 40
Duration                                 : 1h 24mn


Bit rate mode                            : Variable
Bit rate                                 : 125 Kbps
Maximum bit rate                         : 148 Kbps
Channel(s)                               : 2 channels
Channel positions                        : Front: L R
Sampling rate                            : 48.0 KHz
Compression mode                         : Lossy
Stream size                              : 76.1 MiB (5%)
Language                                 : English
Encoded date                             : UTC 2012-09-15 12:22:18

Source                            : Video - Obitel.Zla.Vozmezdie.2012.D.CAMRip - Thanks!
                                        : Audio - Toothfairy - Thanks!                                    

Storyline
Alice fights alongside a resistance movement in the continuing battle against the Umbrella Corporation and the undead.

iMDB: http://www.imdb.com/title/tt1855325/
